# xmcd
#
# Track frame offsets:
#	150
#	12117
#	16136
#	24067
#	40317
#	55558
#	68745
#	75809
#	92693
#	98508
#	113962
#	126683
#	137232
#	149691
#
# Disc length: 2062 seconds
#
# Revision: 0
# Processed by: cddbd v1.5.2PL0 Copyright (c) Steve Scherf et al.
# Submitted via: audiograbber 1.83.01
#
DISCID=aa080c0e
DTITLE=KINDERCHOR - Kinderweihnacht
DYEAR=2013
DGENRE=Weihnachten
TTITLE0=Rudolf, das kleine Rentier 
TTITLE1=Alle Jahre wieder
TTITLE2=Wär ich Einmal der Nikolaus
TTITLE3=Oh, du fröhliche
TTITLE4=Es ist ein Ros' entsprungen
TTITLE5=Schöne Winterzeit
TTITLE6=Fröhliche Weihnacht
TTITLE7=Schlittenfahren mit dem Weihnachtsmann
TTITLE8=Ihr Kinderlein kommet
TTITLE9=Still, still, still
TTITLE10=In der Weihnachtsbäckerei
TTITLE11=Als ich bei meinen Schafen wacht'
TTITLE12=Jingeling, Jingeling (Jinglebells)
TTITLE13=Weihnachtsstern
EXTD=
EXTT0=
EXTT1=
EXTT2=
EXTT3=
EXTT4=
EXTT5=
EXTT6=
EXTT7=
EXTT8=
EXTT9=
EXTT10=
EXTT11=
EXTT12=
EXTT13=
PLAYORDER=
